# xmcd CD database file
#
# Track frame offsets:
#	150
#	64429
#	82803
#	110618
#	141223
#	160236
#	191868
#	214099
#	241771
#
# Disc length: 3486 seconds
#
# Revision: 0
# Processed by: cddbd v1.5PL3 Copyright (c) Steve Scherf et al.
# Submitted via: CDex 1.51
#
DISCID=7e0d9c09
DTITLE=Steve Halpern - Accelerating Self Healing
DYEAR=2000
DGENRE=New Age
TTITLE0=Crystal suite
TTITLE1=Awakening
TTITLE2=Dawn
TTITLE3=Pachelbel's Canon
TTITLE4=Starborn suite
TTITLE5=Comfort Zone
TTITLE6=Self-Healing
TTITLE7=Eventide
TTITLE8=Audio
EXTD=YEAR: 2000
EXTT0=
EXTT1=
EXTT2=
EXTT3=
EXTT4=
EXTT5=
EXTT6=
EXTT7=
EXTT8=
PLAYORDER=
